<?xml version="1.0" encoding="UTF-8" standalone="no"?>
<!DOCTYPE svg PUBLIC "-//W3C//DTD SVG 1.1//EN"
 "http://www.w3.org/Graphics/SVG/1.1/DTD/svg11.dtd">
<!-- Generated by graphviz version 2.40.1 (20161225.0304)
 -->
<!-- Title: G Pages: 1 -->
<svg width="1011pt" height="1964pt"
 viewBox="0.00 0.00 1011.00 1963.50" xmlns="http://www.w3.org/2000/svg" xmlns:xlink="http://www.w3.org/1999/xlink">
<g id="graph0" class="graph" transform="scale(1 1) rotate(0) translate(36 1927.5)">
<title>G</title>
<polygon fill="#f7f7f7" stroke="transparent" points="-36,36 -36,-1927.5 975,-1927.5 975,36 -36,36"/>
<!-- appaccounttype -->
<g id="node1" class="node">
<title>appaccounttype</title>
<polygon fill="none" stroke="#000000" points="113.5,-357.5 .5,-357.5 .5,-61.5 113.5,-61.5 113.5,-357.5"/>
<polygon fill="#d3d3d3" stroke="transparent" points="1,-320.5 1,-357.5 114,-357.5 114,-320.5 1,-320.5"/>
<polygon fill="none" stroke="#000000" points="1,-320.5 1,-357.5 114,-357.5 114,-320.5 1,-320.5"/>
<text text-anchor="start" x="12" y="-335.3" font-family="Helvetica Neue" font-size="14.00" fill="#333333">AccountType</text>
<polygon fill="#ffffff" stroke="transparent" points="1,-283.5 1,-320.5 114,-320.5 114,-283.5 1,-283.5"/>
<polygon fill="none" stroke="#000000" points="1,-283.5 1,-320.5 114,-320.5 114,-283.5 1,-283.5"/>
<text text-anchor="start" x="12" y="-298.3" font-family="Helvetica Neue" font-size="14.00" fill="#333333">id</text>
<polygon fill="#ffffff" stroke="transparent" points="1,-246.5 1,-283.5 114,-283.5 114,-246.5 1,-246.5"/>
<polygon fill="none" stroke="#000000" points="1,-246.5 1,-283.5 114,-283.5 114,-246.5 1,-246.5"/>
<text text-anchor="start" x="12" y="-261.3" font-family="Helvetica Neue" font-size="14.00" fill="#333333">name</text>
<polygon fill="#ffffff" stroke="transparent" points="1,-209.5 1,-246.5 114,-246.5 114,-209.5 1,-209.5"/>
<polygon fill="none" stroke="#000000" points="1,-209.5 1,-246.5 114,-246.5 114,-209.5 1,-209.5"/>
<text text-anchor="start" x="12" y="-224.3" font-family="Helvetica Neue" font-size="14.00" fill="#333333">description</text>
<polygon fill="#ffffff" stroke="transparent" points="1,-172.5 1,-209.5 114,-209.5 114,-172.5 1,-172.5"/>
<polygon fill="none" stroke="#000000" points="1,-172.5 1,-209.5 114,-209.5 114,-172.5 1,-172.5"/>
<text text-anchor="start" x="12" y="-187.3" font-family="Helvetica Neue" font-size="14.00" fill="#333333">zone</text>
<polygon fill="#ffffff" stroke="transparent" points="1,-135.5 1,-172.5 114,-172.5 114,-135.5 1,-135.5"/>
<polygon fill="none" stroke="#000000" points="1,-135.5 1,-172.5 114,-172.5 114,-135.5 1,-135.5"/>
<text text-anchor="start" x="12" y="-150.3" font-family="Helvetica Neue" font-size="14.00" fill="#333333">deleted_at</text>
<polygon fill="#ffffff" stroke="transparent" points="1,-98.5 1,-135.5 114,-135.5 114,-98.5 1,-98.5"/>
<polygon fill="none" stroke="#000000" points="1,-98.5 1,-135.5 114,-135.5 114,-98.5 1,-98.5"/>
<text text-anchor="start" x="12" y="-113.3" font-family="Helvetica Neue" font-size="14.00" fill="#333333">created_at</text>
<polygon fill="#ffffff" stroke="transparent" points="1,-61.5 1,-98.5 114,-98.5 114,-61.5 1,-61.5"/>
<polygon fill="none" stroke="#000000" points="1,-61.5 1,-98.5 114,-98.5 114,-61.5 1,-61.5"/>
<text text-anchor="start" x="12" y="-76.3" font-family="Helvetica Neue" font-size="14.00" fill="#333333">updated_at</text>
</g>
<!-- appuser -->
<g id="node2" class="node">
<title>appuser</title>
<polygon fill="none" stroke="#000000" points="409,-579 263,-579 263,-24 409,-24 409,-579"/>
<polygon fill="#d3d3d3" stroke="transparent" points="263,-541.5 263,-578.5 409,-578.5 409,-541.5 263,-541.5"/>
<polygon fill="none" stroke="#000000" points="263,-541.5 263,-578.5 409,-578.5 409,-541.5 263,-541.5"/>
<text text-anchor="start" x="319" y="-556.3" font-family="Helvetica Neue" font-size="14.00" fill="#333333">User</text>
<polygon fill="#ffffff" stroke="transparent" points="263,-504.5 263,-541.5 409,-541.5 409,-504.5 263,-504.5"/>
<polygon fill="none" stroke="#000000" points="263,-504.5 263,-541.5 409,-541.5 409,-504.5 263,-504.5"/>
<text text-anchor="start" x="274" y="-519.3" font-family="Helvetica Neue" font-size="14.00" fill="#333333">id</text>
<polygon fill="#ffffff" stroke="transparent" points="263,-467.5 263,-504.5 409,-504.5 409,-467.5 263,-467.5"/>
<polygon fill="none" stroke="#000000" points="263,-467.5 263,-504.5 409,-504.5 409,-467.5 263,-467.5"/>
<text text-anchor="start" x="274" y="-482.3" font-family="Helvetica Neue" font-size="14.00" fill="#333333">name</text>
<polygon fill="#ffffff" stroke="transparent" points="263,-430.5 263,-467.5 409,-467.5 409,-430.5 263,-430.5"/>
<polygon fill="none" stroke="#000000" points="263,-430.5 263,-467.5 409,-467.5 409,-430.5 263,-430.5"/>
<text text-anchor="start" x="274" y="-445.3" font-family="Helvetica Neue" font-size="14.00" fill="#333333">email</text>
<polygon fill="#ffffff" stroke="transparent" points="263,-393.5 263,-430.5 409,-430.5 409,-393.5 263,-393.5"/>
<polygon fill="none" stroke="#000000" points="263,-393.5 263,-430.5 409,-430.5 409,-393.5 263,-393.5"/>
<text text-anchor="start" x="274" y="-408.3" font-family="Helvetica Neue" font-size="14.00" fill="#333333">username</text>
<polygon fill="#ffffff" stroke="transparent" points="263,-356.5 263,-393.5 409,-393.5 409,-356.5 263,-356.5"/>
<polygon fill="none" stroke="#000000" points="263,-356.5 263,-393.5 409,-393.5 409,-356.5 263,-356.5"/>
<text text-anchor="start" x="274" y="-371.3" font-family="Helvetica Neue" font-size="14.00" fill="#333333">password</text>
<polygon fill="#ffffff" stroke="transparent" points="263,-319.5 263,-356.5 409,-356.5 409,-319.5 263,-319.5"/>
<polygon fill="none" stroke="#000000" points="263,-319.5 263,-356.5 409,-356.5 409,-319.5 263,-319.5"/>
<text text-anchor="start" x="274" y="-334.3" font-family="Helvetica Neue" font-size="14.00" fill="#333333">slug</text>
<polygon fill="#ffffff" stroke="transparent" points="263,-282.5 263,-319.5 409,-319.5 409,-282.5 263,-282.5"/>
<polygon fill="none" stroke="#000000" points="263,-282.5 263,-319.5 409,-319.5 409,-282.5 263,-282.5"/>
<text text-anchor="start" x="274" y="-297.3" font-family="Helvetica Neue" font-size="14.00" fill="#333333">stripe_id</text>
<polygon fill="#ffffff" stroke="transparent" points="263,-245.5 263,-282.5 409,-282.5 409,-245.5 263,-245.5"/>
<polygon fill="none" stroke="#000000" points="263,-245.5 263,-282.5 409,-282.5 409,-245.5 263,-245.5"/>
<text text-anchor="start" x="274" y="-260.3" font-family="Helvetica Neue" font-size="14.00" fill="#333333">card_brand</text>
<polygon fill="#ffffff" stroke="transparent" points="263,-208.5 263,-245.5 409,-245.5 409,-208.5 263,-208.5"/>
<polygon fill="none" stroke="#000000" points="263,-208.5 263,-245.5 409,-245.5 409,-208.5 263,-208.5"/>
<text text-anchor="start" x="274" y="-223.3" font-family="Helvetica Neue" font-size="14.00" fill="#333333">card_last_four</text>
<polygon fill="#ffffff" stroke="transparent" points="263,-171.5 263,-208.5 409,-208.5 409,-171.5 263,-171.5"/>
<polygon fill="none" stroke="#000000" points="263,-171.5 263,-208.5 409,-208.5 409,-171.5 263,-171.5"/>
<text text-anchor="start" x="274" y="-186.3" font-family="Helvetica Neue" font-size="14.00" fill="#333333">trial_ends_at</text>
<polygon fill="#ffffff" stroke="transparent" points="263,-134.5 263,-171.5 409,-171.5 409,-134.5 263,-134.5"/>
<polygon fill="none" stroke="#000000" points="263,-134.5 263,-171.5 409,-171.5 409,-134.5 263,-134.5"/>
<text text-anchor="start" x="274" y="-149.3" font-family="Helvetica Neue" font-size="14.00" fill="#333333">remember_token</text>
<polygon fill="#ffffff" stroke="transparent" points="263,-97.5 263,-134.5 409,-134.5 409,-97.5 263,-97.5"/>
<polygon fill="none" stroke="#000000" points="263,-97.5 263,-134.5 409,-134.5 409,-97.5 263,-97.5"/>
<text text-anchor="start" x="274" y="-112.3" font-family="Helvetica Neue" font-size="14.00" fill="#333333">deleted_at</text>
<polygon fill="#ffffff" stroke="transparent" points="263,-60.5 263,-97.5 409,-97.5 409,-60.5 263,-60.5"/>
<polygon fill="none" stroke="#000000" points="263,-60.5 263,-97.5 409,-97.5 409,-60.5 263,-60.5"/>
<text text-anchor="start" x="274" y="-75.3" font-family="Helvetica Neue" font-size="14.00" fill="#333333">created_at</text>
<polygon fill="#ffffff" stroke="transparent" points="263,-23.5 263,-60.5 409,-60.5 409,-23.5 263,-23.5"/>
<polygon fill="none" stroke="#000000" points="263,-23.5 263,-60.5 409,-60.5 409,-23.5 263,-23.5"/>
<text text-anchor="start" x="274" y="-38.3" font-family="Helvetica Neue" font-size="14.00" fill="#333333">updated_at</text>
</g>
<!-- appaccounttype&#45;&gt;appuser -->
<g id="edge1" class="edge">
<title>appaccounttype&#45;&gt;appuser</title>
<path fill="none" stroke="#003049" stroke-width="1.25" d="M113.5813,-207.3069C148.242,-205.9635 186,-204.5 186,-204.5 186,-204.5 191,-204.5 191,-204.5 191,-204.5 221.3277,-224.7882 254.2432,-246.8075"/>
<polygon fill="#003049" stroke="#003049" stroke-width="1.25" points="252.3926,-249.7805 262.6504,-252.4317 256.2848,-243.9623 252.3926,-249.7805"/>
<text text-anchor="middle" x="188.5" y="-208.3" font-family="Helvetica Neue" font-size="14.00" fill="#000000"> </text>
<text text-anchor="middle" x="134.3083" y="-193.3" font-family="Helvetica Neue" font-size="14.00" fill="#000000">BelongsToMany</text>
<text text-anchor="middle" x="134.3083" y="-178.3" font-family="Helvetica Neue" font-size="14.00" fill="#000000">users</text>
</g>
<!-- appuser&#45;&gt;appaccounttype -->
<g id="edge4" class="edge">
<title>appuser&#45;&gt;appaccounttype</title>
<path fill="none" stroke="#003049" stroke-width="1.25" d="M262.8342,-277.3736C219.6209,-263.1241 165.3383,-245.2244 123.3686,-231.385"/>
<polygon fill="#003049" stroke="#003049" stroke-width="1.25" points="124.3892,-228.0362 113.7961,-228.2285 122.197,-234.6841 124.3892,-228.0362"/>
<text text-anchor="middle" x="188.5" y="-257.3" font-family="Helvetica Neue" font-size="14.00" fill="#000000"> </text>
<text text-anchor="middle" x="249.1014" y="-243.1793" font-family="Helvetica Neue" font-size="14.00" fill="#000000">BelongsToMany</text>
<text text-anchor="middle" x="249.1014" y="-228.1793" font-family="Helvetica Neue" font-size="14.00" fill="#000000">accountTypes</text>
</g>
<!-- appprofile -->
<g id="node3" class="node">
<title>appprofile</title>
<polygon fill="none" stroke="#000000" points="686,-1243 558,-1243 558,-688 686,-688 686,-1243"/>
<polygon fill="#d3d3d3" stroke="transparent" points="558,-1205.5 558,-1242.5 686,-1242.5 686,-1205.5 558,-1205.5"/>
<polygon fill="none" stroke="#000000" points="558,-1205.5 558,-1242.5 686,-1242.5 686,-1205.5 558,-1205.5"/>
<text text-anchor="start" x="599" y="-1220.3" font-family="Helvetica Neue" font-size="14.00" fill="#333333">Profile</text>
<polygon fill="#ffffff" stroke="transparent" points="558,-1168.5 558,-1205.5 686,-1205.5 686,-1168.5 558,-1168.5"/>
<polygon fill="none" stroke="#000000" points="558,-1168.5 558,-1205.5 686,-1205.5 686,-1168.5 558,-1168.5"/>
<text text-anchor="start" x="569" y="-1183.3" font-family="Helvetica Neue" font-size="14.00" fill="#333333">id</text>
<polygon fill="#ffffff" stroke="transparent" points="558,-1131.5 558,-1168.5 686,-1168.5 686,-1131.5 558,-1131.5"/>
<polygon fill="none" stroke="#000000" points="558,-1131.5 558,-1168.5 686,-1168.5 686,-1131.5 558,-1131.5"/>
<text text-anchor="start" x="569" y="-1146.3" font-family="Helvetica Neue" font-size="14.00" fill="#333333">user_id</text>
<polygon fill="#ffffff" stroke="transparent" points="558,-1094.5 558,-1131.5 686,-1131.5 686,-1094.5 558,-1094.5"/>
<polygon fill="none" stroke="#000000" points="558,-1094.5 558,-1131.5 686,-1131.5 686,-1094.5 558,-1094.5"/>
<text text-anchor="start" x="569" y="-1109.3" font-family="Helvetica Neue" font-size="14.00" fill="#333333">address_1</text>
<polygon fill="#ffffff" stroke="transparent" points="558,-1057.5 558,-1094.5 686,-1094.5 686,-1057.5 558,-1057.5"/>
<polygon fill="none" stroke="#000000" points="558,-1057.5 558,-1094.5 686,-1094.5 686,-1057.5 558,-1057.5"/>
<text text-anchor="start" x="569" y="-1072.3" font-family="Helvetica Neue" font-size="14.00" fill="#333333">address_2</text>
<polygon fill="#ffffff" stroke="transparent" points="558,-1020.5 558,-1057.5 686,-1057.5 686,-1020.5 558,-1020.5"/>
<polygon fill="none" stroke="#000000" points="558,-1020.5 558,-1057.5 686,-1057.5 686,-1020.5 558,-1020.5"/>
<text text-anchor="start" x="569" y="-1035.3" font-family="Helvetica Neue" font-size="14.00" fill="#333333">city</text>
<polygon fill="#ffffff" stroke="transparent" points="558,-983.5 558,-1020.5 686,-1020.5 686,-983.5 558,-983.5"/>
<polygon fill="none" stroke="#000000" points="558,-983.5 558,-1020.5 686,-1020.5 686,-983.5 558,-983.5"/>
<text text-anchor="start" x="569" y="-998.3" font-family="Helvetica Neue" font-size="14.00" fill="#333333">state</text>
<polygon fill="#ffffff" stroke="transparent" points="558,-946.5 558,-983.5 686,-983.5 686,-946.5 558,-946.5"/>
<polygon fill="none" stroke="#000000" points="558,-946.5 558,-983.5 686,-983.5 686,-946.5 558,-946.5"/>
<text text-anchor="start" x="569" y="-961.3" font-family="Helvetica Neue" font-size="14.00" fill="#333333">postal_code</text>
<polygon fill="#ffffff" stroke="transparent" points="558,-909.5 558,-946.5 686,-946.5 686,-909.5 558,-909.5"/>
<polygon fill="none" stroke="#000000" points="558,-909.5 558,-946.5 686,-946.5 686,-909.5 558,-909.5"/>
<text text-anchor="start" x="569" y="-924.3" font-family="Helvetica Neue" font-size="14.00" fill="#333333">country</text>
<polygon fill="#ffffff" stroke="transparent" points="558,-872.5 558,-909.5 686,-909.5 686,-872.5 558,-872.5"/>
<polygon fill="none" stroke="#000000" points="558,-872.5 558,-909.5 686,-909.5 686,-872.5 558,-872.5"/>
<text text-anchor="start" x="569" y="-887.3" font-family="Helvetica Neue" font-size="14.00" fill="#333333">country_code</text>
<polygon fill="#ffffff" stroke="transparent" points="558,-835.5 558,-872.5 686,-872.5 686,-835.5 558,-835.5"/>
<polygon fill="none" stroke="#000000" points="558,-835.5 558,-872.5 686,-872.5 686,-835.5 558,-835.5"/>
<text text-anchor="start" x="569" y="-850.3" font-family="Helvetica Neue" font-size="14.00" fill="#333333">npa_nxx_suffix</text>
<polygon fill="#ffffff" stroke="transparent" points="558,-798.5 558,-835.5 686,-835.5 686,-798.5 558,-798.5"/>
<polygon fill="none" stroke="#000000" points="558,-798.5 558,-835.5 686,-835.5 686,-798.5 558,-798.5"/>
<text text-anchor="start" x="569" y="-813.3" font-family="Helvetica Neue" font-size="14.00" fill="#333333">phone_type</text>
<polygon fill="#ffffff" stroke="transparent" points="558,-761.5 558,-798.5 686,-798.5 686,-761.5 558,-761.5"/>
<polygon fill="none" stroke="#000000" points="558,-761.5 558,-798.5 686,-798.5 686,-761.5 558,-761.5"/>
<text text-anchor="start" x="569" y="-776.3" font-family="Helvetica Neue" font-size="14.00" fill="#333333">deleted_at</text>
<polygon fill="#ffffff" stroke="transparent" points="558,-724.5 558,-761.5 686,-761.5 686,-724.5 558,-724.5"/>
<polygon fill="none" stroke="#000000" points="558,-724.5 558,-761.5 686,-761.5 686,-724.5 558,-724.5"/>
<text text-anchor="start" x="569" y="-739.3" font-family="Helvetica Neue" font-size="14.00" fill="#333333">created_at</text>
<polygon fill="#ffffff" stroke="transparent" points="558,-687.5 558,-724.5 686,-724.5 686,-687.5 558,-687.5"/>
<polygon fill="none" stroke="#000000" points="558,-687.5 558,-724.5 686,-724.5 686,-687.5 558,-687.5"/>
<text text-anchor="start" x="569" y="-702.3" font-family="Helvetica Neue" font-size="14.00" fill="#333333">updated_at</text>
</g>
<!-- appuser&#45;&gt;appprofile -->
<g id="edge6" class="edge">
<title>appuser:id&#45;&gt;appprofile:user_id</title>
<path fill="none" stroke="#d62828" stroke-width="1.25" d="M409,-523.5C409,-523.5 481,-869.5 481,-869.5 481,-869.5 546.4387,-1108.3088 556.6635,-1145.6227"/>
<polygon fill="#d62828" stroke="#d62828" stroke-width="1.25" points="562.5579,-1148.2141 552.9135,-1150.857 552.3849,-1148.9281 562.0294,-1146.2852 562.5579,-1148.2141"/>
<polyline fill="none" stroke="#d62828" stroke-width="1.25" points="558,-1150.5 556.6785,-1145.6778 "/>
<text text-anchor="middle" x="483.5" y="-887.3" font-family="Helvetica Neue" font-size="14.00" fill="#000000"> </text>
<text text-anchor="middle" x="445.6639" y="-825.4487" font-family="Helvetica Neue" font-size="14.00" fill="#000000">HasOne</text>
<text text-anchor="middle" x="445.6639" y="-810.4487" font-family="Helvetica Neue" font-size="14.00" fill="#000000">profile</text>
</g>
<!-- modulessupportentitiescomment -->
<g id="node5" class="node">
<title>modulessupportentitiescomment</title>
<polygon fill="none" stroke="#000000" points="939,-259 835,-259 835,0 939,0 939,-259"/>
<polygon fill="#d3d3d3" stroke="transparent" points="835,-221.5 835,-258.5 939,-258.5 939,-221.5 835,-221.5"/>
<polygon fill="none" stroke="#000000" points="835,-221.5 835,-258.5 939,-258.5 939,-221.5 835,-221.5"/>
<text text-anchor="start" x="851.5" y="-236.3" font-family="Helvetica Neue" font-size="14.00" fill="#333333">Comment</text>
<polygon fill="#ffffff" stroke="transparent" points="835,-184.5 835,-221.5 939,-221.5 939,-184.5 835,-184.5"/>
<polygon fill="none" stroke="#000000" points="835,-184.5 835,-221.5 939,-221.5 939,-184.5 835,-184.5"/>
<text text-anchor="start" x="846" y="-199.3" font-family="Helvetica Neue" font-size="14.00" fill="#333333">id</text>
<polygon fill="#ffffff" stroke="transparent" points="835,-147.5 835,-184.5 939,-184.5 939,-147.5 835,-147.5"/>
<polygon fill="none" stroke="#000000" points="835,-147.5 835,-184.5 939,-184.5 939,-147.5 835,-147.5"/>
<text text-anchor="start" x="846" y="-162.3" font-family="Helvetica Neue" font-size="14.00" fill="#333333">ticket_id</text>
<polygon fill="#ffffff" stroke="transparent" points="835,-110.5 835,-147.5 939,-147.5 939,-110.5 835,-110.5"/>
<polygon fill="none" stroke="#000000" points="835,-110.5 835,-147.5 939,-147.5 939,-110.5 835,-110.5"/>
<text text-anchor="start" x="846" y="-125.3" font-family="Helvetica Neue" font-size="14.00" fill="#333333">user_id</text>
<polygon fill="#ffffff" stroke="transparent" points="835,-73.5 835,-110.5 939,-110.5 939,-73.5 835,-73.5"/>
<polygon fill="none" stroke="#000000" points="835,-73.5 835,-110.5 939,-110.5 939,-73.5 835,-73.5"/>
<text text-anchor="start" x="846" y="-88.3" font-family="Helvetica Neue" font-size="14.00" fill="#333333">comment</text>
<polygon fill="#ffffff" stroke="transparent" points="835,-36.5 835,-73.5 939,-73.5 939,-36.5 835,-36.5"/>
<polygon fill="none" stroke="#000000" points="835,-36.5 835,-73.5 939,-73.5 939,-36.5 835,-36.5"/>
<text text-anchor="start" x="846" y="-51.3" font-family="Helvetica Neue" font-size="14.00" fill="#333333">created_at</text>
<polygon fill="#ffffff" stroke="transparent" points="835,.5 835,-36.5 939,-36.5 939,.5 835,.5"/>
<polygon fill="none" stroke="#000000" points="835,.5 835,-36.5 939,-36.5 939,.5 835,.5"/>
<text text-anchor="start" x="846" y="-14.3" font-family="Helvetica Neue" font-size="14.00" fill="#333333">updated_at</text>
</g>
<!-- appuser&#45;&gt;modulessupportentitiescomment -->
<g id="edge5" class="edge">
<title>appuser:id&#45;&gt;modulessupportentitiescomment:user_id</title>
<path fill="none" stroke="#fcbf49" stroke-width="1.25" d="M409,-523.5C409,-523.5 558,-157.5 558,-157.5 558,-157.5 774.8384,-134.7985 824.8129,-129.5665"/>
<polygon fill="#fcbf49" stroke="#fcbf49" stroke-width="1.25" points="825.0544,-129.5413 835.4686,-132.9755 830.0272,-129.0207 835,-128.5 835,-128.5 835,-128.5 830.0272,-129.0207 834.5314,-124.0245 825.0544,-129.5413 825.0544,-129.5413"/>
<text text-anchor="middle" x="622" y="-161.3" font-family="Helvetica Neue" font-size="14.00" fill="#000000"> </text>
<text text-anchor="middle" x="496.0766" y="-235.0649" font-family="Helvetica Neue" font-size="14.00" fill="#000000">HasMany</text>
<text text-anchor="middle" x="496.0766" y="-220.0649" font-family="Helvetica Neue" font-size="14.00" fill="#000000">comments</text>
</g>
<!-- modulessupportentitiesticket -->
<g id="node6" class="node">
<title>modulessupportentitiesticket</title>
<polygon fill="none" stroke="#000000" points="675,-616 569,-616 569,-209 675,-209 675,-616"/>
<polygon fill="#d3d3d3" stroke="transparent" points="569,-578.5 569,-615.5 675,-615.5 675,-578.5 569,-578.5"/>
<polygon fill="none" stroke="#000000" points="569,-578.5 569,-615.5 675,-615.5 675,-578.5 569,-578.5"/>
<text text-anchor="start" x="601" y="-593.3" font-family="Helvetica Neue" font-size="14.00" fill="#333333">Ticket</text>
<polygon fill="#ffffff" stroke="transparent" points="569,-541.5 569,-578.5 675,-578.5 675,-541.5 569,-541.5"/>
<polygon fill="none" stroke="#000000" points="569,-541.5 569,-578.5 675,-578.5 675,-541.5 569,-541.5"/>
<text text-anchor="start" x="580" y="-556.3" font-family="Helvetica Neue" font-size="14.00" fill="#333333">id</text>
<polygon fill="#ffffff" stroke="transparent" points="569,-504.5 569,-541.5 675,-541.5 675,-504.5 569,-504.5"/>
<polygon fill="none" stroke="#000000" points="569,-504.5 569,-541.5 675,-541.5 675,-504.5 569,-504.5"/>
<text text-anchor="start" x="580" y="-519.3" font-family="Helvetica Neue" font-size="14.00" fill="#333333">user_id</text>
<polygon fill="#ffffff" stroke="transparent" points="569,-467.5 569,-504.5 675,-504.5 675,-467.5 569,-467.5"/>
<polygon fill="none" stroke="#000000" points="569,-467.5 569,-504.5 675,-504.5 675,-467.5 569,-467.5"/>
<text text-anchor="start" x="580" y="-482.3" font-family="Helvetica Neue" font-size="14.00" fill="#333333">category_id</text>
<polygon fill="#ffffff" stroke="transparent" points="569,-430.5 569,-467.5 675,-467.5 675,-430.5 569,-430.5"/>
<polygon fill="none" stroke="#000000" points="569,-430.5 569,-467.5 675,-467.5 675,-430.5 569,-430.5"/>
<text text-anchor="start" x="580" y="-445.3" font-family="Helvetica Neue" font-size="14.00" fill="#333333">ticket_id</text>
<polygon fill="#ffffff" stroke="transparent" points="569,-393.5 569,-430.5 675,-430.5 675,-393.5 569,-393.5"/>
<polygon fill="none" stroke="#000000" points="569,-393.5 569,-430.5 675,-430.5 675,-393.5 569,-393.5"/>
<text text-anchor="start" x="580" y="-408.3" font-family="Helvetica Neue" font-size="14.00" fill="#333333">title</text>
<polygon fill="#ffffff" stroke="transparent" points="569,-356.5 569,-393.5 675,-393.5 675,-356.5 569,-356.5"/>
<polygon fill="none" stroke="#000000" points="569,-356.5 569,-393.5 675,-393.5 675,-356.5 569,-356.5"/>
<text text-anchor="start" x="580" y="-371.3" font-family="Helvetica Neue" font-size="14.00" fill="#333333">priority</text>
<polygon fill="#ffffff" stroke="transparent" points="569,-319.5 569,-356.5 675,-356.5 675,-319.5 569,-319.5"/>
<polygon fill="none" stroke="#000000" points="569,-319.5 569,-356.5 675,-356.5 675,-319.5 569,-319.5"/>
<text text-anchor="start" x="580" y="-334.3" font-family="Helvetica Neue" font-size="14.00" fill="#333333">message</text>
<polygon fill="#ffffff" stroke="transparent" points="569,-282.5 569,-319.5 675,-319.5 675,-282.5 569,-282.5"/>
<polygon fill="none" stroke="#000000" points="569,-282.5 569,-319.5 675,-319.5 675,-282.5 569,-282.5"/>
<text text-anchor="start" x="580" y="-297.3" font-family="Helvetica Neue" font-size="14.00" fill="#333333">status</text>
<polygon fill="#ffffff" stroke="transparent" points="569,-245.5 569,-282.5 675,-282.5 675,-245.5 569,-245.5"/>
<polygon fill="none" stroke="#000000" points="569,-245.5 569,-282.5 675,-282.5 675,-245.5 569,-245.5"/>
<text text-anchor="start" x="580" y="-260.3" font-family="Helvetica Neue" font-size="14.00" fill="#333333">created_at</text>
<polygon fill="#ffffff" stroke="transparent" points="569,-208.5 569,-245.5 675,-245.5 675,-208.5 569,-208.5"/>
<polygon fill="none" stroke="#000000" points="569,-208.5 569,-245.5 675,-245.5 675,-208.5 569,-208.5"/>
<text text-anchor="start" x="580" y="-223.3" font-family="Helvetica Neue" font-size="14.00" fill="#333333">updated_at</text>
</g>
<!-- appuser&#45;&gt;modulessupportentitiesticket -->
<g id="edge7" class="edge">
<title>appuser:id&#45;&gt;modulessupportentitiesticket:user_id</title>
<path fill="none" stroke="#fcbf49" stroke-width="1.25" d="M409,-523.5C409,-523.5 523.9634,-523.5 558.9913,-523.5"/>
<polygon fill="#fcbf49" stroke="#fcbf49" stroke-width="1.25" points="559,-523.5001 569,-528 564,-523.5 569,-523.5 569,-523.5 569,-523.5 564,-523.5 569,-519 559,-523.5001 559,-523.5001"/>
<text text-anchor="middle" x="483.5" y="-527.3" font-family="Helvetica Neue" font-size="14.00" fill="#000000"> </text>
<text text-anchor="middle" x="516.9956" y="-512.3" font-family="Helvetica Neue" font-size="14.00" fill="#000000">HasMany</text>
<text text-anchor="middle" x="516.9956" y="-497.3" font-family="Helvetica Neue" font-size="14.00" fill="#000000">tickets</text>
</g>
<!-- appprofile&#45;&gt;appuser -->
<g id="edge2" class="edge">
<title>appprofile:user_id&#45;&gt;appuser:id</title>
<path fill="none" stroke="#f77f00" stroke-width="1.25" d="M555.6727,-1140.7065C537.8394,-1065.6632 423.1988,-583.2495 410.1994,-528.547"/>
<polygon fill="#f77f00" stroke="#f77f00" stroke-width="1.25" points="555.6879,-1140.7709 553.6219,-1151.5404 556.844,-1145.6355 558,-1150.5 558,-1150.5 558,-1150.5 556.844,-1145.6355 562.3781,-1149.4596 555.6879,-1140.7709 555.6879,-1140.7709"/>
<polygon fill="#f77f00" stroke="#f77f00" stroke-width="1.25" points="404.3667,-525.629 414.0957,-523.3168 414.5582,-525.2626 404.8291,-527.5748 404.3667,-525.629"/>
<polyline fill="none" stroke="#f77f00" stroke-width="1.25" points="409,-523.5 410.1561,-528.3645 "/>
<text text-anchor="middle" x="483.5" y="-840.3" font-family="Helvetica Neue" font-size="14.00" fill="#000000"> </text>
<text text-anchor="middle" x="519.436" y="-823.4267" font-family="Helvetica Neue" font-size="14.00" fill="#000000">BelongsTo</text>
<text text-anchor="middle" x="519.436" y="-808.4267" font-family="Helvetica Neue" font-size="14.00" fill="#000000">user</text>
</g>
<!-- appsubscription -->
<g id="node4" class="node">
<title>appsubscription</title>
<polygon fill="none" stroke="#000000" points="114,-837 0,-837 0,-430 114,-430 114,-837"/>
<polygon fill="#d3d3d3" stroke="transparent" points="0,-799.5 0,-836.5 114,-836.5 114,-799.5 0,-799.5"/>
<polygon fill="none" stroke="#000000" points="0,-799.5 0,-836.5 114,-836.5 114,-799.5 0,-799.5"/>
<text text-anchor="start" x="13" y="-814.3" font-family="Helvetica Neue" font-size="14.00" fill="#333333">Subscription</text>
<polygon fill="#ffffff" stroke="transparent" points="0,-762.5 0,-799.5 114,-799.5 114,-762.5 0,-762.5"/>
<polygon fill="none" stroke="#000000" points="0,-762.5 0,-799.5 114,-799.5 114,-762.5 0,-762.5"/>
<text text-anchor="start" x="11" y="-777.3" font-family="Helvetica Neue" font-size="14.00" fill="#333333">id</text>
<polygon fill="#ffffff" stroke="transparent" points="0,-725.5 0,-762.5 114,-762.5 114,-725.5 0,-725.5"/>
<polygon fill="none" stroke="#000000" points="0,-725.5 0,-762.5 114,-762.5 114,-725.5 0,-725.5"/>
<text text-anchor="start" x="11" y="-740.3" font-family="Helvetica Neue" font-size="14.00" fill="#333333">user_id</text>
<polygon fill="#ffffff" stroke="transparent" points="0,-688.5 0,-725.5 114,-725.5 114,-688.5 0,-688.5"/>
<polygon fill="none" stroke="#000000" points="0,-688.5 0,-725.5 114,-725.5 114,-688.5 0,-688.5"/>
<text text-anchor="start" x="11" y="-703.3" font-family="Helvetica Neue" font-size="14.00" fill="#333333">name</text>
<polygon fill="#ffffff" stroke="transparent" points="0,-651.5 0,-688.5 114,-688.5 114,-651.5 0,-651.5"/>
<polygon fill="none" stroke="#000000" points="0,-651.5 0,-688.5 114,-688.5 114,-651.5 0,-651.5"/>
<text text-anchor="start" x="11" y="-666.3" font-family="Helvetica Neue" font-size="14.00" fill="#333333">stripe_id</text>
<polygon fill="#ffffff" stroke="transparent" points="0,-614.5 0,-651.5 114,-651.5 114,-614.5 0,-614.5"/>
<polygon fill="none" stroke="#000000" points="0,-614.5 0,-651.5 114,-651.5 114,-614.5 0,-614.5"/>
<text text-anchor="start" x="11" y="-629.3" font-family="Helvetica Neue" font-size="14.00" fill="#333333">stripe_plan</text>
<polygon fill="#ffffff" stroke="transparent" points="0,-577.5 0,-614.5 114,-614.5 114,-577.5 0,-577.5"/>
<polygon fill="none" stroke="#000000" points="0,-577.5 0,-614.5 114,-614.5 114,-577.5 0,-577.5"/>
<text text-anchor="start" x="11" y="-592.3" font-family="Helvetica Neue" font-size="14.00" fill="#333333">quantity</text>
<polygon fill="#ffffff" stroke="transparent" points="0,-540.5 0,-577.5 114,-577.5 114,-540.5 0,-540.5"/>
<polygon fill="none" stroke="#000000" points="0,-540.5 0,-577.5 114,-577.5 114,-540.5 0,-540.5"/>
<text text-anchor="start" x="11" y="-555.3" font-family="Helvetica Neue" font-size="14.00" fill="#333333">trial_ends_at</text>
<polygon fill="#ffffff" stroke="transparent" points="0,-503.5 0,-540.5 114,-540.5 114,-503.5 0,-503.5"/>
<polygon fill="none" stroke="#000000" points="0,-503.5 0,-540.5 114,-540.5 114,-503.5 0,-503.5"/>
<text text-anchor="start" x="11" y="-518.3" font-family="Helvetica Neue" font-size="14.00" fill="#333333">ends_at</text>
<polygon fill="#ffffff" stroke="transparent" points="0,-466.5 0,-503.5 114,-503.5 114,-466.5 0,-466.5"/>
<polygon fill="none" stroke="#000000" points="0,-466.5 0,-503.5 114,-503.5 114,-466.5 0,-466.5"/>
<text text-anchor="start" x="11" y="-481.3" font-family="Helvetica Neue" font-size="14.00" fill="#333333">created_at</text>
<polygon fill="#ffffff" stroke="transparent" points="0,-429.5 0,-466.5 114,-466.5 114,-429.5 0,-429.5"/>
<polygon fill="none" stroke="#000000" points="0,-429.5 0,-466.5 114,-466.5 114,-429.5 0,-429.5"/>
<text text-anchor="start" x="11" y="-444.3" font-family="Helvetica Neue" font-size="14.00" fill="#333333">updated_at</text>
</g>
<!-- appsubscription&#45;&gt;appuser -->
<g id="edge3" class="edge">
<title>appsubscription:user_id&#45;&gt;appuser:id</title>
<path fill="none" stroke="#f77f00" stroke-width="1.25" d="M119.659,-736.1064C144.3241,-699.5226 242.0081,-554.6356 260.1071,-527.7909"/>
<polygon fill="#f77f00" stroke="#f77f00" stroke-width="1.25" points="119.5903,-736.2085 110.2688,-741.9844 116.7951,-740.3542 114,-744.5 114,-744.5 114,-744.5 116.7951,-740.3542 117.7312,-747.0156 119.5903,-736.2085 119.5903,-736.2085"/>
<polygon fill="#f77f00" stroke="#f77f00" stroke-width="1.25" points="258.2952,-521.534 266.5868,-527.1243 265.4687,-528.7826 257.1771,-523.1923 258.2952,-521.534"/>
<polyline fill="none" stroke="#f77f00" stroke-width="1.25" points="263,-523.5 260.2048,-527.6458 "/>
<text text-anchor="middle" x="188.5" y="-637.3" font-family="Helvetica Neue" font-size="14.00" fill="#000000"> </text>
<text text-anchor="middle" x="153.3831" y="-620.7486" font-family="Helvetica Neue" font-size="14.00" fill="#000000">BelongsTo</text>
<text text-anchor="middle" x="153.3831" y="-605.7486" font-family="Helvetica Neue" font-size="14.00" fill="#000000">user</text>
</g>
<!-- modulessupportentitiescomment&#45;&gt;appuser -->
<g id="edge10" class="edge">
<title>modulessupportentitiescomment:user_id&#45;&gt;appuser:id</title>
<path fill="none" stroke="#f77f00" stroke-width="1.25" d="M824.9887,-127.1095C805.2051,-124.3618 763,-118.5 763,-118.5 763,-118.5 686,-111.5 686,-111.5 686,-111.5 558,-111.5 558,-111.5 558,-111.5 481,-316.5 481,-316.5 481,-316.5 421.8672,-486.5068 410.7798,-518.3831"/>
<polygon fill="#f77f00" stroke="#f77f00" stroke-width="1.25" points="825.0951,-127.1242 834.3809,-132.9572 830.0475,-127.8121 835,-128.5 835,-128.5 835,-128.5 830.0475,-127.8121 835.6191,-124.0428 825.0951,-127.1242 825.0951,-127.1242"/>
<polygon fill="#f77f00" stroke="#f77f00" stroke-width="1.25" points="414.051,-524.1982 404.606,-520.9128 405.2631,-519.0238 414.7081,-522.3092 414.051,-524.1982"/>
<polyline fill="none" stroke="#f77f00" stroke-width="1.25" points="409,-523.5 410.6427,-518.7775 "/>
<text text-anchor="middle" x="622" y="-115.3" font-family="Helvetica Neue" font-size="14.00" fill="#000000"> </text>
<text text-anchor="middle" x="492.521" y="-177.4519" font-family="Helvetica Neue" font-size="14.00" fill="#000000">BelongsTo</text>
<text text-anchor="middle" x="492.521" y="-162.4519" font-family="Helvetica Neue" font-size="14.00" fill="#000000">user</text>
</g>
<!-- modulessupportentitiescomment&#45;&gt;modulessupportentitiesticket -->
<g id="edge9" class="edge">
<title>modulessupportentitiescomment:ticket_id&#45;&gt;modulessupportentitiesticket:id</title>
<path fill="none" stroke="#f77f00" stroke-width="1.25" d="M831.2375,-175.7652C808.8119,-230.9883 693.1974,-515.6888 676.9083,-555.8007"/>
<polygon fill="#f77f00" stroke="#f77f00" stroke-width="1.25" points="831.2374,-175.7652 839.1693,-168.1932 833.1187,-171.1326 835,-166.5 835,-166.5 835,-166.5 833.1187,-171.1326 830.8307,-164.8068 831.2374,-175.7652 831.2374,-175.7652"/>
<polygon fill="#f77f00" stroke="#f77f00" stroke-width="1.25" points="680.0089,-561.4548 670.7437,-557.6922 671.4962,-555.8391 680.7614,-559.6018 680.0089,-561.4548"/>
<polyline fill="none" stroke="#f77f00" stroke-width="1.25" points="675,-560.5 676.8813,-555.8674 "/>
<text text-anchor="middle" x="760.5" y="-356.3" font-family="Helvetica Neue" font-size="14.00" fill="#000000"> </text>
<text text-anchor="middle" x="717.5729" y="-354.583" font-family="Helvetica Neue" font-size="14.00" fill="#000000">BelongsTo</text>
<text text-anchor="middle" x="717.5729" y="-339.583" font-family="Helvetica Neue" font-size="14.00" fill="#000000">ticket</text>
</g>
<!-- modulessupportentitiesticket&#45;&gt;appuser -->
<g id="edge13" class="edge">
<title>modulessupportentitiesticket:user_id&#45;&gt;appuser:id</title>
<path fill="none" stroke="#f77f00" stroke-width="1.25" d="M559.4788,-519.7145C537.6774,-511.0464 486,-490.5 486,-490.5 486,-490.5 481,-490.5 481,-490.5 481,-490.5 429.7422,-513.9932 413.7241,-521.3348"/>
<polygon fill="#f77f00" stroke="#f77f00" stroke-width="1.25" points="559.7075,-519.8053 567.3374,-527.6816 564.3538,-521.6527 569,-523.5 569,-523.5 569,-523.5 564.3538,-521.6527 570.6626,-519.3184 559.7075,-519.8053 559.7075,-519.8053"/>
<polygon fill="#f77f00" stroke="#f77f00" stroke-width="1.25" points="411.9924,-527.6287 407.8257,-518.538 409.6439,-517.7047 413.8105,-526.7953 411.9924,-527.6287"/>
<polyline fill="none" stroke="#f77f00" stroke-width="1.25" points="409,-523.5 413.5453,-521.4167 "/>
<text text-anchor="middle" x="483.5" y="-494.3" font-family="Helvetica Neue" font-size="14.00" fill="#000000"> </text>
<text text-anchor="middle" x="522.5316" y="-479.3126" font-family="Helvetica Neue" font-size="14.00" fill="#000000">BelongsTo</text>
<text text-anchor="middle" x="522.5316" y="-464.3126" font-family="Helvetica Neue" font-size="14.00" fill="#000000">user</text>
</g>
<!-- modulessupportentitiesticket&#45;&gt;modulessupportentitiescomment -->
<g id="edge12" class="edge">
<title>modulessupportentitiesticket:id&#45;&gt;modulessupportentitiescomment:ticket_id</title>
<path fill="none" stroke="#fcbf49" stroke-width="1.25" d="M675,-560.5C675,-560.5 763,-493.5 763,-493.5 763,-493.5 820.8653,-230.6953 832.8452,-176.2865"/>
<polygon fill="#fcbf49" stroke="#fcbf49" stroke-width="1.25" points="832.8496,-176.2661 839.3947,-167.4677 833.9248,-171.383 835,-166.5 835,-166.5 835,-166.5 833.9248,-171.383 830.6053,-165.5323 832.8496,-176.2661 832.8496,-176.2661"/>
<text text-anchor="middle" x="760.5" y="-501.3" font-family="Helvetica Neue" font-size="14.00" fill="#000000"> </text>
<text text-anchor="middle" x="748.031" y="-407.701" font-family="Helvetica Neue" font-size="14.00" fill="#000000">HasMany</text>
<text text-anchor="middle" x="748.031" y="-392.701" font-family="Helvetica Neue" font-size="14.00" fill="#000000">comments</text>
</g>
<!-- modulessupportentitiescategory -->
<g id="node7" class="node">
<title>modulessupportentitiescategory</title>
<polygon fill="none" stroke="#000000" points="939,-520 835,-520 835,-335 939,-335 939,-520"/>
<polygon fill="#d3d3d3" stroke="transparent" points="835,-482.5 835,-519.5 939,-519.5 939,-482.5 835,-482.5"/>
<polygon fill="none" stroke="#000000" points="835,-482.5 835,-519.5 939,-519.5 939,-482.5 835,-482.5"/>
<text text-anchor="start" x="854" y="-497.3" font-family="Helvetica Neue" font-size="14.00" fill="#333333">Category</text>
<polygon fill="#ffffff" stroke="transparent" points="835,-445.5 835,-482.5 939,-482.5 939,-445.5 835,-445.5"/>
<polygon fill="none" stroke="#000000" points="835,-445.5 835,-482.5 939,-482.5 939,-445.5 835,-445.5"/>
<text text-anchor="start" x="846" y="-460.3" font-family="Helvetica Neue" font-size="14.00" fill="#333333">id</text>
<polygon fill="#ffffff" stroke="transparent" points="835,-408.5 835,-445.5 939,-445.5 939,-408.5 835,-408.5"/>
<polygon fill="none" stroke="#000000" points="835,-408.5 835,-445.5 939,-445.5 939,-408.5 835,-408.5"/>
<text text-anchor="start" x="846" y="-423.3" font-family="Helvetica Neue" font-size="14.00" fill="#333333">name</text>
<polygon fill="#ffffff" stroke="transparent" points="835,-371.5 835,-408.5 939,-408.5 939,-371.5 835,-371.5"/>
<polygon fill="none" stroke="#000000" points="835,-371.5 835,-408.5 939,-408.5 939,-371.5 835,-371.5"/>
<text text-anchor="start" x="846" y="-386.3" font-family="Helvetica Neue" font-size="14.00" fill="#333333">created_at</text>
<polygon fill="#ffffff" stroke="transparent" points="835,-334.5 835,-371.5 939,-371.5 939,-334.5 835,-334.5"/>
<polygon fill="none" stroke="#000000" points="835,-334.5 835,-371.5 939,-371.5 939,-334.5 835,-334.5"/>
<text text-anchor="start" x="846" y="-349.3" font-family="Helvetica Neue" font-size="14.00" fill="#333333">updated_at</text>
</g>
<!-- modulessupportentitiesticket&#45;&gt;modulessupportentitiescategory -->
<g id="edge11" class="edge">
<title>modulessupportentitiesticket:category_id&#45;&gt;modulessupportentitiescategory:id</title>
<path fill="none" stroke="#f77f00" stroke-width="1.25" d="M683.8825,-481.4702C705.2942,-469.3455 758,-439.5 758,-439.5 758,-439.5 763,-439.5 763,-439.5 763,-439.5 814.2578,-457.2979 830.2759,-462.8597"/>
<polygon fill="#f77f00" stroke="#f77f00" stroke-width="1.25" points="683.7017,-481.5725 672.7826,-482.5842 679.3509,-484.0362 675,-486.5 675,-486.5 675,-486.5 679.3509,-484.0362 677.2174,-490.4158 683.7017,-481.5725 683.7017,-481.5725"/>
<polygon fill="#f77f00" stroke="#f77f00" stroke-width="1.25" points="835.6955,-459.4486 832.4152,-468.8953 830.5259,-468.2393 833.8061,-458.7926 835.6955,-459.4486"/>
<polyline fill="none" stroke="#f77f00" stroke-width="1.25" points="835,-464.5 830.2766,-462.8599 "/>
<text text-anchor="middle" x="760.5" y="-443.3" font-family="Helvetica Neue" font-size="14.00" fill="#000000"> </text>
<text text-anchor="middle" x="717.6017" y="-460.5074" font-family="Helvetica Neue" font-size="14.00" fill="#000000">BelongsTo</text>
<text text-anchor="middle" x="717.6017" y="-445.5074" font-family="Helvetica Neue" font-size="14.00" fill="#000000">category</text>
</g>
<!-- modulessupportentitiescategory&#45;&gt;modulessupportentitiesticket -->
<g id="edge8" class="edge">
<title>modulessupportentitiescategory:id&#45;&gt;modulessupportentitiesticket:category_id</title>
<path fill="none" stroke="#fcbf49" stroke-width="1.25" d="M835,-464.5C835,-464.5 758,-472.5 758,-472.5 758,-472.5 707.3408,-481.0449 685.1774,-484.7833"/>
<polygon fill="#fcbf49" stroke="#fcbf49" stroke-width="1.25" points="684.8607,-484.8367 674.2515,-482.0627 679.9304,-485.6683 675,-486.5 675,-486.5 675,-486.5 679.9304,-485.6683 675.7485,-490.9373 684.8607,-484.8367 684.8607,-484.8367"/>
<text text-anchor="middle" x="760.5" y="-476.3" font-family="Helvetica Neue" font-size="14.00" fill="#000000"> </text>
<text text-anchor="middle" x="792.7721" y="-461.1159" font-family="Helvetica Neue" font-size="14.00" fill="#000000">HasMany</text>
<text text-anchor="middle" x="792.7721" y="-446.1159" font-family="Helvetica Neue" font-size="14.00" fill="#000000">tickets</text>
</g>
<!-- appbasemodel -->
<g id="node8" class="node">
<title>appbasemodel</title>
<polygon fill="none" stroke="#000000" points="107.5,-1009.5 6.5,-1009.5 6.5,-909.5 107.5,-909.5 107.5,-1009.5"/>
<polygon fill="#d3d3d3" stroke="transparent" points="7,-972.5 7,-1009.5 108,-1009.5 108,-972.5 7,-972.5"/>
<polygon fill="none" stroke="#000000" points="7,-972.5 7,-1009.5 108,-1009.5 108,-972.5 7,-972.5"/>
<text text-anchor="start" x="18" y="-987.3" font-family="Helvetica Neue" font-size="14.00" fill="#333333">BaseModel</text>
</g>
<!-- appdepartment -->
<g id="node9" class="node">
<title>appdepartment</title>
<polygon fill="none" stroke="#000000" points="112,-1303.5 2,-1303.5 2,-1081.5 112,-1081.5 112,-1303.5"/>
<polygon fill="#d3d3d3" stroke="transparent" points="2,-1266.5 2,-1303.5 112,-1303.5 112,-1266.5 2,-1266.5"/>
<polygon fill="none" stroke="#000000" points="2,-1266.5 2,-1303.5 112,-1303.5 112,-1266.5 2,-1266.5"/>
<text text-anchor="start" x="13" y="-1281.3" font-family="Helvetica Neue" font-size="14.00" fill="#333333">Department</text>
<polygon fill="#ffffff" stroke="transparent" points="2,-1229.5 2,-1266.5 112,-1266.5 112,-1229.5 2,-1229.5"/>
<polygon fill="none" stroke="#000000" points="2,-1229.5 2,-1266.5 112,-1266.5 112,-1229.5 2,-1229.5"/>
<text text-anchor="start" x="13" y="-1244.3" font-family="Helvetica Neue" font-size="14.00" fill="#333333">id</text>
<polygon fill="#ffffff" stroke="transparent" points="2,-1192.5 2,-1229.5 112,-1229.5 112,-1192.5 2,-1192.5"/>
<polygon fill="none" stroke="#000000" points="2,-1192.5 2,-1229.5 112,-1229.5 112,-1192.5 2,-1192.5"/>
<text text-anchor="start" x="13" y="-1207.3" font-family="Helvetica Neue" font-size="14.00" fill="#333333">name</text>
<polygon fill="#ffffff" stroke="transparent" points="2,-1155.5 2,-1192.5 112,-1192.5 112,-1155.5 2,-1155.5"/>
<polygon fill="none" stroke="#000000" points="2,-1155.5 2,-1192.5 112,-1192.5 112,-1155.5 2,-1155.5"/>
<text text-anchor="start" x="13" y="-1170.3" font-family="Helvetica Neue" font-size="14.00" fill="#333333">description</text>
<polygon fill="#ffffff" stroke="transparent" points="2,-1118.5 2,-1155.5 112,-1155.5 112,-1118.5 2,-1118.5"/>
<polygon fill="none" stroke="#000000" points="2,-1118.5 2,-1155.5 112,-1155.5 112,-1118.5 2,-1118.5"/>
<text text-anchor="start" x="13" y="-1133.3" font-family="Helvetica Neue" font-size="14.00" fill="#333333">created_at</text>
<polygon fill="#ffffff" stroke="transparent" points="2,-1081.5 2,-1118.5 112,-1118.5 112,-1081.5 2,-1081.5"/>
<polygon fill="none" stroke="#000000" points="2,-1081.5 2,-1118.5 112,-1118.5 112,-1081.5 2,-1081.5"/>
<text text-anchor="start" x="13" y="-1096.3" font-family="Helvetica Neue" font-size="14.00" fill="#333333">updated_at</text>
</g>
<!-- apppermission -->
<g id="node10" class="node">
<title>apppermission</title>
<polygon fill="none" stroke="#000000" points="113.5,-1597.5 .5,-1597.5 .5,-1375.5 113.5,-1375.5 113.5,-1597.5"/>
<polygon fill="#d3d3d3" stroke="transparent" points="1,-1560.5 1,-1597.5 114,-1597.5 114,-1560.5 1,-1560.5"/>
<polygon fill="none" stroke="#000000" points="1,-1560.5 1,-1597.5 114,-1597.5 114,-1560.5 1,-1560.5"/>
<text text-anchor="start" x="18.5" y="-1575.3" font-family="Helvetica Neue" font-size="14.00" fill="#333333">Permission</text>
<polygon fill="#ffffff" stroke="transparent" points="1,-1523.5 1,-1560.5 114,-1560.5 114,-1523.5 1,-1523.5"/>
<polygon fill="none" stroke="#000000" points="1,-1523.5 1,-1560.5 114,-1560.5 114,-1523.5 1,-1523.5"/>
<text text-anchor="start" x="12" y="-1538.3" font-family="Helvetica Neue" font-size="14.00" fill="#333333">id</text>
<polygon fill="#ffffff" stroke="transparent" points="1,-1486.5 1,-1523.5 114,-1523.5 114,-1486.5 1,-1486.5"/>
<polygon fill="none" stroke="#000000" points="1,-1486.5 1,-1523.5 114,-1523.5 114,-1486.5 1,-1486.5"/>
<text text-anchor="start" x="12" y="-1501.3" font-family="Helvetica Neue" font-size="14.00" fill="#333333">name</text>
<polygon fill="#ffffff" stroke="transparent" points="1,-1449.5 1,-1486.5 114,-1486.5 114,-1449.5 1,-1449.5"/>
<polygon fill="none" stroke="#000000" points="1,-1449.5 1,-1486.5 114,-1486.5 114,-1449.5 1,-1449.5"/>
<text text-anchor="start" x="12" y="-1464.3" font-family="Helvetica Neue" font-size="14.00" fill="#333333">guard_name</text>
<polygon fill="#ffffff" stroke="transparent" points="1,-1412.5 1,-1449.5 114,-1449.5 114,-1412.5 1,-1412.5"/>
<polygon fill="none" stroke="#000000" points="1,-1412.5 1,-1449.5 114,-1449.5 114,-1412.5 1,-1412.5"/>
<text text-anchor="start" x="12" y="-1427.3" font-family="Helvetica Neue" font-size="14.00" fill="#333333">created_at</text>
<polygon fill="#ffffff" stroke="transparent" points="1,-1375.5 1,-1412.5 114,-1412.5 114,-1375.5 1,-1375.5"/>
<polygon fill="none" stroke="#000000" points="1,-1375.5 1,-1412.5 114,-1412.5 114,-1375.5 1,-1375.5"/>
<text text-anchor="start" x="12" y="-1390.3" font-family="Helvetica Neue" font-size="14.00" fill="#333333">updated_at</text>
</g>
<!-- approle -->
<g id="node11" class="node">
<title>approle</title>
<polygon fill="none" stroke="#000000" points="113.5,-1891.5 .5,-1891.5 .5,-1669.5 113.5,-1669.5 113.5,-1891.5"/>
<polygon fill="#d3d3d3" stroke="transparent" points="1,-1854.5 1,-1891.5 114,-1891.5 114,-1854.5 1,-1854.5"/>
<polygon fill="none" stroke="#000000" points="1,-1854.5 1,-1891.5 114,-1891.5 114,-1854.5 1,-1854.5"/>
<text text-anchor="start" x="42" y="-1869.3" font-family="Helvetica Neue" font-size="14.00" fill="#333333">Role</text>
<polygon fill="#ffffff" stroke="transparent" points="1,-1817.5 1,-1854.5 114,-1854.5 114,-1817.5 1,-1817.5"/>
<polygon fill="none" stroke="#000000" points="1,-1817.5 1,-1854.5 114,-1854.5 114,-1817.5 1,-1817.5"/>
<text text-anchor="start" x="12" y="-1832.3" font-family="Helvetica Neue" font-size="14.00" fill="#333333">id</text>
<polygon fill="#ffffff" stroke="transparent" points="1,-1780.5 1,-1817.5 114,-1817.5 114,-1780.5 1,-1780.5"/>
<polygon fill="none" stroke="#000000" points="1,-1780.5 1,-1817.5 114,-1817.5 114,-1780.5 1,-1780.5"/>
<text text-anchor="start" x="12" y="-1795.3" font-family="Helvetica Neue" font-size="14.00" fill="#333333">name</text>
<polygon fill="#ffffff" stroke="transparent" points="1,-1743.5 1,-1780.5 114,-1780.5 114,-1743.5 1,-1743.5"/>
<polygon fill="none" stroke="#000000" points="1,-1743.5 1,-1780.5 114,-1780.5 114,-1743.5 1,-1743.5"/>
<text text-anchor="start" x="12" y="-1758.3" font-family="Helvetica Neue" font-size="14.00" fill="#333333">guard_name</text>
<polygon fill="#ffffff" stroke="transparent" points="1,-1706.5 1,-1743.5 114,-1743.5 114,-1706.5 1,-1706.5"/>
<polygon fill="none" stroke="#000000" points="1,-1706.5 1,-1743.5 114,-1743.5 114,-1706.5 1,-1706.5"/>
<text text-anchor="start" x="12" y="-1721.3" font-family="Helvetica Neue" font-size="14.00" fill="#333333">created_at</text>
<polygon fill="#ffffff" stroke="transparent" points="1,-1669.5 1,-1706.5 114,-1706.5 114,-1669.5 1,-1669.5"/>
<polygon fill="none" stroke="#000000" points="1,-1669.5 1,-1706.5 114,-1706.5 114,-1669.5 1,-1669.5"/>
<text text-anchor="start" x="12" y="-1684.3" font-family="Helvetica Neue" font-size="14.00" fill="#333333">updated_at</text>
</g>
</g>
</svg>
